<svg version="1.1" id="Layer_1" xmlns="http://www.w3.org/2000/svg" xmlns:xlink="http://www.w3.org/1999/xlink" x="0px" y="0px" width="192.756px" height="192.756px" viewBox="0 0 192.756 192.756" enable-background="new 0 0 192.756 192.756" xml:space="preserve"><polygon fill-rule="evenodd" clip-rule="evenodd" fill="#FFFFFF" points="0,0 192.756,0 192.756,192.756 0,192.756 0,0"/><polygon fill-rule="evenodd" clip-rule="evenodd" fill="#F1DB0E" points="46.451,179.649 46.451,184.631 143.759,184.631 143.759,179.649 46.451,179.649 46.451,179.649"/><path fill-rule="evenodd" clip-rule="evenodd" fill="#0EB1CB" d="M46.451,113.232 V41.165 h78.045 l0,0 c0,0 -32.878,16.273 -45.167,61.439 C70.363,108.915 46.451,113.232 46.451,113.232 L46.451,113.232 L46.451,113.232 L46.451,113.232 z"/><path fill-rule="evenodd" clip-rule="evenodd" fill="#F1DB0E" d="M36.3,122.236 c-4.707,-5.989 -7.514,-13.541 -7.514,-21.749 c0,-19.454 15.771,-35.225 35.225,-35.225 c12.512,0 23.5,6.523 29.749,16.354 c-2.143,5.711 -7.235,11.468 -10.424,23.749 C57.3,107.697 44.458,119.432 36.3,122.236 L36.3,122.236 L36.3,122.236 L36.3,122.236 z"/><path fill-rule="evenodd" clip-rule="evenodd" fill="#0C7F40" d="M46.451,125.521 c0,6.31 0,11.291 0,11.291 l0,0 h97.308 l0,0 c0,0 0,-77.712 0,-87.344 c-43.174,20.258 -57.455,60.443 -57.455,60.443 S63.721,112.899 46.451,125.521 L46.451,125.521 L46.451,125.521 L46.451,125.521 z"/><path fill-rule="evenodd" clip-rule="evenodd" fill="#1E3666" d="M189.921,26.552 c0,0 -78.82,12.509 -106.052,75.832 C106.009,27.77 189.921,26.552 189.921,26.552 L189.921,26.552 L189.921,26.552 L189.921,26.552 z"/><path fill-rule="evenodd" clip-rule="evenodd" fill="#1E3666" d="M83.336,105.365 c0,0 -47.733,7.646 -80.501,49.712 C35.16,103.269 83.336,105.365 83.336,105.365 L83.336,105.365 L83.336,105.365 L83.336,105.365 z"/><path d="M47.4,141.904 c0.748,-0.172 1.87,-0.301 3.023,-0.301 c1.577,0 2.649,0.345 3.381,1.158 c0.601,0.666 0.942,1.673 0.942,2.896 c0,1.867 -0.959,3.132 -1.983,3.626 v0.066 c0.78,0.385 1.251,1.393 1.527,2.787 c0.342,1.802 0.634,3.475 0.862,4.031 h-2.064 c-0.163,-0.43 -0.423,-1.607 -0.731,-3.411 c-0.309,-1.885 -0.829,-2.486 -1.967,-2.53 h-1.007 v5.941 H47.4 V141.904 z M49.383,148.298 h1.187 c1.349,0 2.194,-0.947 2.194,-2.382 c0,-1.587 -0.846,-2.318 -2.146,-2.318 c-0.634,0 -1.041,0.066 -1.235,0.129 V148.298 z"/><path d="M62.782,149.756 h-4.129 v4.247 h4.617 v2.165 h-6.616 V141.71 h6.372 v2.168 h-4.373 v3.733 h4.129 V149.756 z"/><path d="M73.808,155.504 c-0.699,0.345 -2.064,0.814 -3.527,0.814 c-1.853,0 -3.251,-0.62 -4.292,-1.929 c-0.976,-1.222 -1.544,-3.132 -1.528,-5.321 c0,-4.567 2.471,-7.509 6.096,-7.509 c1.349,0 2.405,0.366 2.91,0.687 l-0.439,2.126 c-0.602,-0.344 -1.333,-0.624 -2.487,-0.624 c-2.341,0 -3.982,1.824 -3.982,5.191 c0,3.281 1.528,5.234 3.803,5.234 c0.715,0 1.252,-0.129 1.512,-0.3 v-3.604 h-1.935 v-2.082 h3.869 V155.504 z"/><path d="M77.86,141.71 v14.458 h-1.999 V141.71 H77.86 z"/><path d="M89.875,148.789 c0,4.849 -2.227,7.616 -5.25,7.616 c-3.089,0 -5.04,-3.112 -5.04,-7.356 c0,-4.442 2.113,-7.574 5.202,-7.574 C87.99,141.475 89.875,144.67 89.875,148.789 z M81.699,149.004 c0,2.94 1.122,5.3 3.041,5.3 c1.934,0 3.023,-2.382 3.023,-5.405 c0,-2.726 -1.024,-5.32 -3.023,-5.32 C82.756,143.578 81.699,146.022 81.699,149.004 z"/><path d="M91.604,156.168 V141.71 h2.276 l2.829,6.201 c0.731,1.608 1.365,3.281 1.869,4.846 h0.032 c-0.13,-1.929 -0.179,-3.794 -0.179,-6.004 v-5.043 h1.86 v14.458 h-2.071 l-2.861,-6.371 c-0.699,-1.565 -1.431,-3.345 -1.967,-4.977 l-0.049,0.022 c0.082,1.866 0.098,3.776 0.098,6.157 v5.168 H91.604 z"/><path d="M56.178,173.6 c-0.699,0.343 -2.065,0.815 -3.527,0.815 c-1.853,0 -3.251,-0.623 -4.292,-1.931 c-0.976,-1.223 -1.544,-3.133 -1.528,-5.319 c0,-4.57 2.471,-7.509 6.096,-7.509 c1.35,0 2.406,0.363 2.91,0.686 l-0.439,2.124 c-0.602,-0.343 -1.333,-0.622 -2.487,-0.622 c-2.341,0 -3.983,1.824 -3.983,5.191 c0,3.282 1.528,5.235 3.804,5.235 c0.715,0 1.252,-0.129 1.512,-0.301 v-3.603 h-1.934 v-2.083 h3.869 V173.6 z"/><path d="M60.215,159.807 v8.431 c0,2.831 0.893,4.14 2.243,4.14 c1.447,0 2.308,-1.309 2.308,-4.14 v-8.431 h2 v8.26 c0,4.461 -1.739,6.434 -4.373,6.434 c-2.536,0 -4.178,-1.865 -4.178,-6.413 v-8.28 H60.215 z"/><path d="M70.737,170.167 l-0.943,4.098 H67.73 l3.511,-14.458 h2.552 l3.56,14.458 h-2.146 l-0.992,-4.098 H70.737 z M73.874,168.173 l-0.861,-3.563 c-0.212,-0.878 -0.391,-1.865 -0.553,-2.702 h-0.033 c-0.162,0.837 -0.325,1.846 -0.52,2.702 l-0.845,3.563 H73.874 z"/><path d="M78.886,160 c0.877,-0.193 2,-0.3 3.186,-0.3 c2.048,0 3.462,0.558 4.47,1.672 c1.056,1.138 1.707,2.853 1.707,5.32 c0,2.573 -0.667,4.506 -1.707,5.749 c-1.089,1.308 -2.829,1.974 -4.958,1.974 c-1.17,0 -2.048,-0.087 -2.698,-0.194 V160 z M80.886,172.249 c0.276,0.062 0.699,0.062 1.105,0.062 c2.601,0.023 4.146,-1.864 4.146,-5.532 c0.016,-3.196 -1.382,-5.02 -3.885,-5.02 c-0.634,0 -1.089,0.064 -1.365,0.149 V172.249 z"/><path d="M96.123,167.851 h-4.129 v4.248 h4.617 v2.166 h-6.616 v-14.458 h6.372 v2.167 h-4.373 v3.731 h4.129 V167.851 z"/><path d="M98.371,159.807 h2.007 v12.247 h4.505 v2.211 h-6.512 V159.807 z"/><path d="M115.486,166.886 c0,4.849 -2.227,7.614 -5.25,7.614 c-3.088,0 -5.039,-3.11 -5.039,-7.356 c0,-4.442 2.113,-7.573 5.201,-7.573 C113.602,159.57 115.486,162.767 115.486,166.886 z M107.311,167.1 c0,2.939 1.121,5.3 3.039,5.3 c1.936,0 3.024,-2.383 3.024,-5.406 c0,-2.726 -1.024,-5.32 -3.024,-5.32 C108.367,161.673 107.311,164.117 107.311,167.1 z"/><path d="M119.195,159.807 v8.431 c0,2.831 0.895,4.14 2.243,4.14 c1.446,0 2.309,-1.309 2.309,-4.14 v-8.431 h2 v8.26 c0,4.461 -1.739,6.434 -4.373,6.434 c-2.536,0 -4.178,-1.865 -4.178,-6.413 v-8.28 H119.195 z"/><path d="M128.043,160 c0.715,-0.171 1.706,-0.3 3.057,-0.3 c1.462,0 2.536,0.407 3.234,1.178 c0.65,0.709 1.072,1.846 1.072,3.196 c0,1.373 -0.324,2.511 -0.942,3.281 c-0.797,1.052 -2.048,1.548 -3.463,1.548 c-0.373,0 -0.714,-0.023 -0.975,-0.088 v5.449 h-1.983 V160 z M130.026,166.735 c0.244,0.085 0.568,0.107 0.975,0.107 c1.496,0 2.406,-0.966 2.406,-2.659 c0,-1.609 -0.846,-2.469 -2.228,-2.469 c-0.552,0 -0.942,0.064 -1.153,0.129 V166.735 z"/><path d="M143.263,167.851 h-4.128 v4.248 h4.615 v2.166 h-6.615 v-14.458 h6.372 v2.167 h-4.372 v3.731 h4.128 V167.851 z"/></svg>